<svg width="64" height="64" xmlns="http://www.w3.org/2000/svg">
 <title/>

 <desc/>
 <g>
  <title>background</title>
  <rect fill="#ff3366" id="canvas_background" height="66" width="66" y="-1" x="-1"/>
 </g>
 <g>
  <title>Layer 1</title>
  <path fill="#ffffff" id="Rectangle" d="m21.5901,47.4099c0.97631,0.97631 2.55922,0.97631 3.53553,0l28.28427,-28.28427c0.97631,-0.97631 0.97631,-2.55922 0,-3.53553c-0.97631,-0.97631 -2.55922,-0.97631 -3.53553,0l-28.28427,28.28427c-0.97631,0.97631 -0.97631,2.55922 0,3.53553z"/>
  <path fill="#ffffff" id="Rectangle" d="m10.42893,32.92893c0.97631,-0.97631 2.55923,-0.97631 3.53554,0l10.6066,10.6066c0.97631,0.97631 0.97631,2.55923 0,3.53554c-0.97631,0.97631 -2.55923,0.97631 -3.53554,0l-10.6066,-10.6066c-0.97631,-0.97631 -0.97631,-2.55923 0,-3.53554z"/>
 </g>
</svg>